{"accessors" : [{"bufferView" : 0, "byteOffset" : 0, "componentType" : 5123, "count" : 618, "type" : "SCALAR", "max" : [511], "min" : [0]}, {"bufferView" : 1, "byteOffset" : 0, "componentType" : 5126, "count" : 512, "type" : "VEC3", "max" : [0.04997779428958893, 1.7455627918243408, 0.10763528943061829], "min" : [0.01134118065237999, 1.7069852352142334, 0.08843273669481277], "name" : "POSITION"}, {"bufferView" : 1, "byteOffset" : 12, "componentType" : 5126, "count" : 512, "type" : "VEC3", "max" : [0.9405931234359741, 0.9512237906455994, 1.0000042915344238], "min" : [-0.9471347332000732, -0.9485123753547668, -1.0000044107437134], "name" : "NORMAL"}, {"bufferView" : 1, "byteOffset" : 24, "componentType" : 5126, "count" : 512, "type" : "VEC2", "max" : [0.9646214246749878, 0.9818061590194702], "min" : [0.019903719425201416, 0.020990610122680664], "name" : "TEXCOORD_0"}, {"bufferView" : 0, "byteOffset" : 1236, "componentType" : 5123, "count" : 618, "type" : "SCALAR", "max" : [514], "min" : [0]}, {"bufferView" : 2, "byteOffset" : 0, "componentType" : 5126, "count" : 515, "type" : "VEC3", "max" : [-0.011611626483500004, 1.7456026077270508, 0.10763532668352127], "min" : [-0.05009465292096138, 1.706945776939392, 0.08843278884887695], "name" : "POSITION"}, {"bufferView" : 2, "byteOffset" : 12, "componentType" : 5126, "count" : 515, "type" : "VEC3", "max" : [0.9310587048530579, 0.9478596448898315, 1.0000042915344238], "min" : [-0.9491675496101379, -0.9364673495292664, -1.0000044107437134], "name" : "NORMAL"}, {"bufferView" : 2, "byteOffset" : 24, "componentType" : 5126, "count" : 515, "type" : "VEC2", "max" : [0.9585750699043274, 0.966354489326477], "min" : [0.006885886192321777, 0.022762417793273926], "name" : "TEXCOORD_0"}, {"bufferView" : 0, "byteOffset" : 2472, "componentType" : 5123, "count" : 12282, "type" : "SCALAR", "max" : [9713], "min" : [0]}, {"bufferView" : 3, "byteOffset" : 0, "componentType" : 5126, "count" : 9714, "type" : "VEC3", "max" : [0.09579432010650635, 1.8330841064453125, 0.14207804203033447], "min" : [-0.09610731154680252, 1.5206059217453003, -0.0865776538848877], "name" : "POSITION"}, {"bufferView" : 3, "byteOffset" : 12, "componentType" : 5126, "count" : 9714, "type" : "VEC3", "max" : [0.9992212057113647, 0.9998701810836792, 0.9999849200248718], "min" : [-0.9992178082466125, -0.9999943971633911, -0.9999960660934448], "name" : "NORMAL"}, {"bufferView" : 3, "byteOffset" : 24, "componentType" : 5126, "count" : 9714, "type" : "VEC2", "max" : [0.9943000078201294, 0.9807000160217285], "min" : [0.004999999888241291, 0.004350006580352783], "name" : "TEXCOORD_0"}, {"bufferView" : 0, "byteOffset" : 27036, "componentType" : 5123, "count" : 300, "type" : "SCALAR", "max" : [238], "min" : [0]}, {"bufferView" : 4, "byteOffset" : 0, "componentType" : 5126, "count" : 239, "type" : "VEC3", "max" : [0.027948791161179543, 1.6772522926330566, 0.11650931090116501], "min" : [-0.027948791161179543, 1.641879916191101, 0.0498250350356102], "name" : "POSITION"}, {"bufferView" : 4, "byteOffset" : 12, "componentType" : 5126, "count" : 239, "type" : "VEC3", "max" : [0.9971848130226135, 0.8770292401313782, 0.9974733591079712], "min" : [-0.9971846342086792, -0.9858387112617493, -0.7650244832038879], "name" : "NORMAL"}, {"bufferView" : 4, "byteOffset" : 24, "componentType" : 5126, "count" : 239, "type" : "VEC2", "max" : [0.9808249473571777, 0.983213484287262], "min" : [0.051069796085357666, 0.02829587459564209], "name" : "TEXCOORD_0"}, {"bufferView" : 0, "byteOffset" : 27636, "componentType" : 5123, "count" : 4716, "type" : "SCALAR", "max" : [3818], "min" : [0]}, {"bufferView" : 5, "byteOffset" : 0, "componentType" : 5126, "count" : 3819, "type" : "VEC3", "max" : [0.2087980955839157, 1.1312977075576782, 0.15566740930080414], "min" : [-0.20879802107810974, 0.28563451766967773, -0.12907589972019196], "name" : "POSITION"}, {"bufferView" : 5, "byteOffset" : 12, "componentType" : 5126, "count" : 3819, "type" : "VEC3", "max" : [0.9998096823692322, 0.9864521622657776, 0.9986989498138428], "min" : [-0.9993948936462402, -0.9954452514648438, -0.9999884963035583], "name" : "NORMAL"}, {"bufferView" : 5, "byteOffset" : 24, "componentType" : 5126, "count" : 3819, "type" : "VEC2", "max" : [0.9856995940208435, 0.9910374879837036], "min" : [0.015933215618133545, 0.00253218412399292], "name" : "TEXCOORD_0"}, {"bufferView" : 0, "byteOffset" : 37068, "componentType" : 5123, "count" : 1008, "type" : "SCALAR", "max" : [835], "min" : [0]}, {"bufferView" : 6, "byteOffset" : 0, "componentType" : 5126, "count" : 836, "type" : "VEC3", "max" : [0.22391703724861145, 0.3229450583457947, 0.21377575397491455], "min" : [-0.2239168882369995, 0.0004687249311245978, -0.11428754031658173], "name" : "POSITION"}, {"bufferView" : 6, "byteOffset" : 12, "componentType" : 5126, "count" : 836, "type" : "VEC3", "max" : [0.9988811016082764, 0.9976057410240173, 0.9972485303878784], "min" : [-0.9988811612129211, -0.9999998807907104, -0.9991196393966675], "name" : "NORMAL"}, {"bufferView" : 6, "byteOffset" : 24, "componentType" : 5126, "count" : 836, "type" : "VEC2", "max" : [0.9824327230453491, 0.9737163782119751], "min" : [0.03527505323290825, 0.02252185344696045], "name" : "TEXCOORD_0"}, {"bufferView" : 0, "byteOffset" : 39084, "componentType" : 5123, "count" : 14916, "type" : "SCALAR", "max" : [11953], "min" : [0]}, {"bufferView" : 7, "byteOffset" : 0, "componentType" : 5126, "count" : 11954, "type" : "VEC3", "max" : [0.5338007807731628, 1.6425844430923462, 0.16678082942962646], "min" : [-0.5340161919593811, 0.874755859375, -0.1826295703649521], "name" : "POSITION"}, {"bufferView" : 7, "byteOffset" : 12, "componentType" : 5126, "count" : 11954, "type" : "VEC3", "max" : [0.9992451667785645, 0.9954991340637207, 0.9999355673789978], "min" : [-0.9999999403953552, -0.9918250441551208, -0.9997395873069763], "name" : "NORMAL"}, {"bufferView" : 7, "byteOffset" : 24, "componentType" : 5126, "count" : 11954, "type" : "VEC2", "max" : [0.9798097610473633, 0.9814407229423523], "min" : [0.014321818947792053, 0.013548851013183594], "name" : "TEXCOORD_0"}, {"bufferView" : 0, "byteOffset" : 68916, "componentType" : 5123, "count" : 4512, "type" : "SCALAR", "max" : [3602], "min" : [0]}, {"bufferView" : 8, "byteOffset" : 0, "componentType" : 5126, "count" : 3603, "type" : "VEC3", "max" : [0.18518675863742828, 1.85382878780365, 0.1446891576051712], "min" : [-0.18518675863742828, 1.4511518478393555, -0.15931375324726105], "name" : "POSITION"}, {"bufferView" : 8, "byteOffset" : 12, "componentType" : 5126, "count" : 3603, "type" : "VEC3", "max" : [0.9988262057304382, 0.9980723857879639, 0.9990138411521912], "min" : [-0.99883633852005, -0.9983564019203186, -0.9980035424232483], "name" : "NORMAL"}, {"bufferView" : 8, "byteOffset" : 24, "componentType" : 5126, "count" : 3603, "type" : "VEC2", "max" : [0.9881771206855774, 0.9779886603355408], "min" : [0.013073049485683441, 0.013121485710144043], "name" : "TEXCOORD_0"}], "asset" : {"generator" : "Aspose.3D 22.7", "version" : "2.0"}, "buffers" : [{"uri" : "data:application/octet-stream;base64,", "byteLength" : 1325016}], "bufferViews" : [{"buffer" : 0, "byteOffset" : 0, "byteLength" : 77940, "target" : 34963}, {"buffer" : 0, "byteOffset" : 77944, "byteLength" : 19776, "byteStride" : 32, "target" : 34962}, {"buffer" : 0, "byteOffset" : 97724, "byteLength" : 19776, "byteStride" : 32, "target" : 34962}, {"buffer" : 0, "byteOffset" : 117504, "byteLength" : 393024, "byteStride" : 32, "target" : 34962}, {"buffer" : 0, "byteOffset" : 510532, "byteLength" : 9600, "byteStride" : 32, "target" : 34962}, {"buffer" : 0, "byteOffset" : 520136, "byteLength" : 150912, "byteStride" : 32, "target" : 34962}, {"buffer" : 0, "byteOffset" : 671052, "byteLength" : 32256, "byteStride" : 32, "target" : 34962}, {"buffer" : 0, "byteOffset" : 703312, "byteLength" : 477312, "byteStride" : 32, "target" : 34962}, {"buffer" : 0, "byteOffset" : 1180628, "byteLength" : 144384, "byteStride" : 32, "target" : 34962}], "images" : [{"uri" : "data:image/jpeg;base64,"}, {"uri" : "data:image/jpeg;base64,"}, {"uri" : "data:image/jpeg;base64,"}, {"uri" : "data:application/octet-stream;base64,"}, {"uri" : "data:application/octet-stream;base64,"}, {"uri" : "data:application/octet-stream;base64,"}, {"uri" : "data:image/jpeg;base64,"}, {"uri" : "data:image/jpeg;base64,"}, {"uri" : "data:application/octet-stream;base64,"}, {"uri" : "data:application/octet-stream;base64,"}, {"uri" : "data:application/octet-stream;base64,"}, {"uri" : "data:application/octet-stream;base64,"}, {"uri" : "data:application/octet-stream;base64,"}, {"uri" : "data:application/octet-stream;base64,"}], "materials" : [{"name" : "Wolf3D_Eye", "pbrMetallicRoughness" : {"baseColorFactor" : [1, 1, 1, 1], "baseColorTexture" : {"index" : 0, "texCoord" : 0}, "metallicFactor" : 0, "roughnessFactor" : 1}, "emissiveFactor" : [0, 0, 0], "alphaMode" : "OPAQUE", "doubleSided" : true}, {"name" : "Wolf3D_Eye", "pbrMetallicRoughness" : {"baseColorFactor" : [1, 1, 1, 1], "baseColorTexture" : {"index" : 0, "texCoord" : 0}, "metallicFactor" : 0, "roughnessFactor" : 1}, "emissiveFactor" : [0, 0, 0], "alphaMode" : "OPAQUE", "doubleSided" : true}, {"name" : "Wolf3D_Skin", "pbrMetallicRoughness" : {"baseColorFactor" : [1, 1, 1, 1], "baseColorTexture" : {"index" : 1, "texCoord" : 0}, "metallicFactor" : 0, "roughnessFactor" : 0.699999988079071}, "emissiveFactor" : [0, 0, 0], "alphaMode" : "OPAQUE", "doubleSided" : true}, {"name" : "Wolf3D_Teeth", "pbrMetallicRoughness" : {"baseColorFactor" : [1, 1, 1, 1], "baseColorTexture" : {"index" : 2, "texCoord" : 0}, "metallicFactor" : 0, "roughnessFactor" : 1}, "emissiveFactor" : [0, 0, 0], "alphaMode" : "OPAQUE", "doubleSided" : true}, {"name" : "Wolf3D_Outfit_Bottom", "pbrMetallicRoughness" : {"baseColorFactor" : [1, 1, 1, 1], "baseColorTexture" : {"index" : 4, "texCoord" : 0}, "metallicFactor" : 1, "roughnessFactor" : 1, "metallicRoughnessTexture" : {"index" : 5, "texCoord" : 0}}, "normalTexture" : {"index" : 3, "texCoord" : 0, "scale" : 1}, "emissiveFactor" : [0, 0, 0], "alphaMode" : "OPAQUE", "doubleSided" : true}, {"name" : "Wolf3D_Outfit_Footwear", "pbrMetallicRoughness" : {"baseColorFactor" : [1, 1, 1, 1], "baseColorTexture" : {"index" : 7, "texCoord" : 0}, "metallicFactor" : 1, "roughnessFactor" : 1, "metallicRoughnessTexture" : {"index" : 8, "texCoord" : 0}}, "normalTexture" : {"index" : 6, "texCoord" : 0, "scale" : 1}, "emissiveFactor" : [0, 0, 0], "alphaMode" : "OPAQUE", "doubleSided" : true}, {"name" : "Wolf3D_Outfit_Top", "pbrMetallicRoughness" : {"baseColorFactor" : [1, 1, 1, 1], "baseColorTexture" : {"index" : 10, "texCoord" : 0}, "metallicFactor" : 1, "roughnessFactor" : 1, "metallicRoughnessTexture" : {"index" : 11, "texCoord" : 0}}, "normalTexture" : {"index" : 9, "texCoord" : 0, "scale" : 1}, "emissiveFactor" : [0, 0, 0], "alphaMode" : "OPAQUE", "doubleSided" : true}, {"name" : "Wolf3D_Headwear", "pbrMetallicRoughness" : {"baseColorFactor" : [1, 1, 1, 1], "baseColorTexture" : {"index" : 13, "texCoord" : 0}, "metallicFactor" : 0, "roughnessFactor" : 0.8570644855499268}, "normalTexture" : {"index" : 12, "texCoord" : 0, "scale" : 1}, "emissiveFactor" : [0, 0, 0], "alphaMode" : "OPAQUE", "doubleSided" : false}], "meshes" : [{"primitives" : [{"attributes" : {"POSITION" : 1, "NORMAL" : 2, "TEXCOORD_0" : 3}, "indices" : 0, "material" : 0, "mode" : 4}]}, {"primitives" : [{"attributes" : {"POSITION" : 5, "NORMAL" : 6, "TEXCOORD_0" : 7}, "indices" : 4, "material" : 1, "mode" : 4}]}, {"primitives" : [{"attributes" : {"POSITION" : 9, "NORMAL" : 10, "TEXCOORD_0" : 11}, "indices" : 8, "material" : 2, "mode" : 4}]}, {"primitives" : [{"attributes" : {"POSITION" : 13, "NORMAL" : 14, "TEXCOORD_0" : 15}, "indices" : 12, "material" : 3, "mode" : 4}]}, {"primitives" : [{"attributes" : {"POSITION" : 17, "NORMAL" : 18, "TEXCOORD_0" : 19}, "indices" : 16, "material" : 4, "mode" : 4}]}, {"primitives" : [{"attributes" : {"POSITION" : 21, "NORMAL" : 22, "TEXCOORD_0" : 23}, "indices" : 20, "material" : 5, "mode" : 4}]}, {"primitives" : [{"attributes" : {"POSITION" : 25, "NORMAL" : 26, "TEXCOORD_0" : 27}, "indices" : 24, "material" : 6, "mode" : 4}]}, {"primitives" : [{"attributes" : {"POSITION" : 29, "NORMAL" : 30, "TEXCOORD_0" : 31}, "indices" : 28, "material" : 7, "mode" : 4}]}], "nodes" : [{"mesh" : 0, "name" : "EyeLeft"}, {"mesh" : 1, "name" : "EyeRight"}, {"mesh" : 2, "name" : "Wolf3D_Head"}, {"mesh" : 3, "name" : "Wolf3D_Teeth"}, {"mesh" : 4, "name" : "Wolf3D_Outfit_Bottom"}, {"mesh" : 5, "name" : "Wolf3D_Outfit_Footwear"}, {"mesh" : 6, "name" : "Wolf3D_Outfit_Top"}, {"mesh" : 7, "name" : "Wolf3D_Headwear"}, {"children" : [0, 1, 2, 3, 4, 5, 6, 7], "name" : "Armature"}], "samplers" : [{"magFilter" : 9728, "minFilter" : 9728, "wrapS" : 10497, "wrapT" : 10497}, {"magFilter" : 9728, "minFilter" : 9728, "wrapS" : 10497, "wrapT" : 10497}, {"magFilter" : 9729, "minFilter" : 9987, "wrapS" : 10497, "wrapT" : 10497}, {"magFilter" : 9729, "minFilter" : 9987, "wrapS" : 10497, "wrapT" : 10497}, {"magFilter" : 9729, "minFilter" : 9987, "wrapS" : 10497, "wrapT" : 10497}, {"magFilter" : 9729, "minFilter" : 9987, "wrapS" : 10497, "wrapT" : 10497}, {"magFilter" : 9729, "minFilter" : 9987, "wrapS" : 10497, "wrapT" : 10497}, {"magFilter" : 9729, "minFilter" : 9987, "wrapS" : 10497, "wrapT" : 10497}, {"magFilter" : 9729, "minFilter" : 9987, "wrapS" : 10497, "wrapT" : 10497}, {"magFilter" : 9729, "minFilter" : 9987, "wrapS" : 10497, "wrapT" : 10497}, {"magFilter" : 9729, "minFilter" : 9987, "wrapS" : 10497, "wrapT" : 10497}, {"magFilter" : 9729, "minFilter" : 9987, "wrapS" : 10497, "wrapT" : 10497}, {"magFilter" : 9729, "minFilter" : 9987, "wrapS" : 33071, "wrapT" : 33071}, {"magFilter" : 9729, "minFilter" : 9987, "wrapS" : 33071, "wrapT" : 33071}], "scene" : 0, "scenes" : [{"nodes" : [8]}], "textures" : [{"sampler" : 0, "source" : 0, "name" : ""}, {"sampler" : 1, "source" : 1, "name" : ""}, {"sampler" : 2, "source" : 2, "name" : ""}, {"sampler" : 3, "source" : 3, "name" : ""}, {"sampler" : 4, "source" : 4, "name" : ""}, {"sampler" : 5, "source" : 5, "name" : ""}, {"sampler" : 6, "source" : 6, "name" : ""}, {"sampler" : 7, "source" : 7, "name" : ""}, {"sampler" : 8, "source" : 8, "name" : ""}, {"sampler" : 9, "source" : 9, "name" : ""}, {"sampler" : 10, "source" : 10, "name" : ""}, {"sampler" : 11, "source" : 11, "name" : ""}, {"sampler" : 12, "source" : 12, "name" : ""}, {"sampler" : 13, "source" : 13, "name" : ""}]}